/* XPM */
static char *brickwall[] = {
/* columns rows colors chars-per-pixel */
"64 64 102 2",
"   c #3D1B15",
".  c #3C1E1A",
"X  c #3E211D",
"o  c #3E2421",
"O  c #431E17",
"+  c #411F18",
"@  c #43231D",
"#  c #4B241B",
"$  c #52261C",
"%  c #54281E",
"&  c #5A2A1F",
"*  c #432622",
"=  c #462925",
"-  c #452C2A",
";  c #4B2720",
":  c #4B2B25",
">  c #4B2E29",
",  c #47302E",
"<  c #4D312D",
"1  c #4D3431",
"2  c #4F3836",
"3  c #542D24",
"4  c #522E28",
"5  c #5B2E23",
"6  c #553027",
"7  c #53332C",
"8  c #5C3126",
"9  c #5C342B",
"0  c #5D382F",
"q  c #533632",
"w  c #553935",
"e  c #553C39",
"r  c #5B3730",
"t  c #5C3A34",
"y  c #5B3E39",
"u  c #603226",
"i  c #62352A",
"p  c #63392E",
"a  c #633C34",
"s  c #633F38",
"d  c #683E33",
"f  c #5D413C",
"g  c #654037",
"h  c #64423B",
"j  c #6A4036",
"k  c #6A453C",
"l  c #6D483F",
"z  c #70473D",
"x  c #70483E",
"c  c #5C4542",
"v  c #5F4846",
"b  c #5F4C4B",
"n  c #644641",
"m  c #644944",
"M  c #654D4A",
"N  c #694740",
"B  c #6C4A44",
"V  c #6D4F49",
"C  c #66514E",
"Z  c #6D514C",
"A  c #665250",
"S  c #6B5552",
"D  c #6E5955",
"F  c #6F5C59",
"G  c #724D44",
"H  c #704F48",
"J  c #745047",
"K  c #73534C",
"L  c #79564E",
"P  c #735751",
"I  c #745A55",
"U  c #745E5A",
"Y  c #7A5B54",
"T  c #7B5F58",
"R  c #75615D",
"E  c #7C625C",
"W  c #766462",
"Q  c #7B6561",
"!  c #7D6965",
"~  c #7E6C69",
"^  c #81645D",
"/  c #816661",
"(  c #836A65",
")  c #846E69",
"_  c #886C65",
"`  c #896F69",
"'  c #85716D",
"]  c #8A726D",
"[  c #857471",
"{  c #8A7671",
"}  c #8D7975",
"|  c #8C7C79",
" . c #917A75",
".. c #927E79",
"X. c #92817D",
"o. c #968682",
"O. c #978987",
"+. c #988783",
"@. c #9A8A86",
"#. c #998B88",
"$. c #A49490",
"%. c #B2ABAA",
/* pixels */
"f > 7 q * ] d d j j ^ t 6 > 7 V V c n n n | p 0 u 5 ` P B k s B Q y w 4 > U y 7 f f | q > = > e l & u p z / N N B m Q e q s e V ",
"6     @ < ' j d j p ^ g t f f Z I y w w 4 { 3 5 p 0 ^ a s B s B ' M M n n D ; : y q ~ . = , = m L l d u u Y 9 p p p P - : : > n ",
"s t ] I B B B ) j p d j J ` h l m N T u u 5 & u z i 5 % 5 / P H s p Q $ # $ O i M w w < 1 ( N a 0 0 / 9 5 5 8 s b , , , 1 { H m ",
"h B | s t N N P p u u & 8 ^ t a s d T u p d k G Y p a i 9 E k G h s { s 9 r a s A = = = . I 6 0 8 a ] k k d s P c o - o , / s s ",
"V 3 3 # O E > 7 7 q E 0 9 g j k D 1 q w w { 8 9 a h ) q 7 4 4 t M o * * 4 U 4 N t h Q 1 1 1 , c / l s k s { 1 q = = R E P K V U ",
"T 6 7 9 r ( y q 7 6 P 8 8 g 0 9 ~ c 1 = M %.h a 3 9 Q 7 t M n V F q q q q Q r 9 ; # Z - X . . w ` N s N s | * 1 e e | s s s B I ",
"7 7 U q q < q m K a j p 5 ] k g k d { s H H d H ] B y t 4 I t 9 s r ( B B N s V D 1 - , 2 R f t y n ) y s s r c N 4 9 3 5 U 7 e ",
"> = D < < < # : l i k j K } h a s s ` d p u u G F 4 : 7 h I 9 s N N { Z G V V T S - < , * R m f r 7 ~ ; > 4 4 y U k N B N U e 4 ",
"W n e > ; L p p d d ` k 9 9 h K ] P B k h { H B 9 5 T p 5 5 u k / B s n y B 4 6 ; ; Z 8 6 6 6 Y O.N h 0 9 ! y r 6 : U r 9 6 : 4 ",
"D : q e e H u 5 u j  .3 6 3 8 B k 9 9 s k ( s k g h ] J j j z Y U r y n B n # 4 3 # M h h l t Y ' y r t n ) s y r y Q O O # # 4 ",
"B k _ d p p i G T h k a s ) a a a s Q > > - > M m e < < 7 T 7 6 4 r ) N h N B ( I f h e q Y p 5 u p ] K f y 7 Q E s s 9 r / k h ",
"V K  .3 i d k L N a h s h ] K B B H } q > q q S f = : * 4 m # # O O / m N V H / f @ * @ * K u i p j X.7 r y f ! K 3 5 9 0 ] H K ",
"Q s n n m / 5 5 5 5 P e w q = e E a s d l P : # # # D 6 0 k a k h 9 6 6 6 K u u 3 $ ( # * > : < U < < : > U 7 w r s ` 3 5 5 6 9 ",
"( y r r r ( p d p k ^ X = - q c K t t 0 t T : 7 6 6 E h a p 9 g Q B t 7 h E 9 0 j l ] n f e , # E q 4 w y ! h h y y ~ 9 p r u 0 ",
"8 s P 0 3 3 9 8 c + X * = ( B N N l M 9 9 3 9 t M : > # * U y < > 7 ~ r 3 6 r 6 E a a a t ) h s 7 6 Z h r y r 7 ] P Y U Y / 9 6 ",
"9 8 H 9 8 r s V S > 2 q > Q t a k k B 9 6 % 6 f R q w 1 w R # 7 7 7 Q B n s h r ) s B B s / # # # @ 0 f y B y M ` V K s s / 5 9 ",
"M = X * * X.r q t h ! 7 6 4 : 7 f : , X X A o X @ < S x G d a p U > : : ; E p a 8 3 L B B h a d C < < = X Z f 0 f t S @ @ @ w w ",
"D , q e c X.n s f h E h r 7 f h F f f f f W < q > < D i i i u 8 ( n h y y / a s s s ( a p 9 a G S @ - , < V $ % % % m f w e q 1 ",
"p d ( s s s s s C # # @ : F w q < 4 E , , o f , F , 1 , 1 W e c y 2 ' a s N G N I 8 8 4 9 ( d 5 p k K p 8 i 5 8 ) h h j h ` 8 i ",
"p s ` s d p p s f   = @ : ~ m q 1 1 ! X X X 2 f A X X . . Z w w q > ' a 5 u 3 p I 3 9 9 3 T $ & & & J j L x g 0 ^ 9 f j j { j g ",
"F 1 o * * ! M y t r ' M y h q Z C - , = X ` 9 8 p l ] a 9 k N ( L s s G G ^ B V P P } u 5 5 & G f @ > > : ' w f < < I < q e q Z ",
"A , - , 2 D : : > 4 E 4 6 4 7 h A < < e 2 ( g g a a } K Z k s K G 5 & u 5 P p t h s _ i k G ^ ^ F f f q q ~ 4 w q w R @ # * : Z ",
"q r ] B s s 8 B S 2 w q e E 8 a g a ^ B B h g B s & % 8 i / h t s B ` 8 5 9 4 p K p d s s / V h h g ) % 6 0 p l C < , X X ! 6 3 ",
"N n { N G B N V F = o * = E s a g k ] h h l J E s 5 8 & 5 ) K I P H ..H B s s P B 9 4 8 9 ( h h h V X.g 0 g 0 J S 1 , 2 f X.B h ",
"v o - - = X.n N h V ] k a a a l C < w w e ) g f g h X.< 1 e w f Y d p u p _ a u i p K % ; 4 9 h J 5 p u a P w f f w ) p 0 6 8 B ",
"C 2 , - = #.H N N s ) 5 p 9 p l C * * X * E 3 3 0 t ' X X * X 1 G 5 u i u ^ s d k k E t t s t n ^ j j 0 p P 7 4 t q E g j l k E ",
"5 5 h F M n t y ` r r s a T 7 6 4 3 f h 8 3 $ $ E q q < < E 0 8 i 8 k M V S B n ) 7 t h h ) - < 4 : f f : : : : E y f q r R i 8 ",
"h h K f > y 4 7 { N k k h E q n h f V t 3 9 a k ' : S S h E $ 5 5 u k n 7 r w s { h 9 a h ' w e < w F h q w < f ~ f q q w E g h ",
"/ 6 5 5 9 K p i 9 5 G * X o = e O.3 9 0 t  .& 3 8 j L X.B l k g / r p r s ] B N k M ( K 0 a a h [ n y f f { f f h h E B g B l h ",
"/ h h 9 6 I 0 p d 0 H c c w q w ' l B B 8 } a a j 8 k K 8 0 0 l ^ p s p p ( V N B h T P B P B V E q 7 6 w [ 6 # # # l K l h 0 0 ",
"f e w Q s q 4 : U n n e 1 ' t 9 t g 0 R w = = * D h f w 0 ' f < 7 q m } V H I E  .9 p d k ..9 8 9 0 Z R g k h B ) 8 8 8 8 ^ v f ",
"* # < P 4 r e h Q - = q < ' # 3 8 6 a R w e , * R f h h n | < - w e D } B s r a ] j j d u ] N l 0 0 h Y f t 8 7 E k j k x ] = : ",
"` g g g g ` f 1 1 2 v m > 4 4 = R f g f j X.0 f q t h ) s a 6 9 #.B N a a ` 5 3 9 i s M * < > = m & & & 5 ^ d 5 & 5 p S 7 t e e ",
") f 9 8 6 ! X = - , f f X X @ * K g 9 9 6 _ f j g N K E p s B h o.8 5 9 r ( K N d s B Q f q , = K j k i 8 ^ d z z d l A * = = * ",
"h h E M q q : : [ f f q 0 ) k g g g K J g p j i Y 8 5 9 p P a g p 4 N n 3 6 4 9 ^ u 5 u 5 ^ B k s s l ' n y t w ( B B k B ( k h ",
"K I ` A > > 1 1 [ < f f f | k 0 7 g K j i 8 p g Y 0 a g a ^ 0 a s n T K K Z h N ( d k d s ` a 9 9 t h E w t e t ] k a k N ( H K ",
"( 7 6 6 9 E : 7 q r F 8 & 5 8 j ) Z q f < ' p 0 0 g E J k a t a R : < f > [ 0 9 6 s ^ K a s 9 k _ i d u u L 9 0 d H ] l 5 9 9 a ",
"{ h h k V ( r 6 6 w R J g 0 p j R q 4 1 w ) 0 p 8 p K h a h K B E f w > # | h k k a / N N B N Z _ u u 8 p Y h 0 a s Q K B k h 9 ",
"V h h ! f f h f ~ = = X X D B g 8 g g { p g g j ! f w q e ! B B P V V R X @ * * U 5 0 a 5 Y @     X X E 3 r t f [ - - 7 < Q K P ",
"p g h E r 0 h h X.< w 2 1 ! 0 9 9 0 j X.h j p g R # 4 < q U B m h g B F < X X X ( L G d p ^ < 7 f e q ) h h r 7 ' 7 q w e U a 9 ",
"F > 1 f f P 6 6 9 9 E Z m f f f ` Z l f : #.f f f f R h h h f h E g 9 9 5 ) w 7 > > I c > q > < U 7 f f f ^ j j i 8 / - * . . o ",
"E q w 4 : R g f t r E Z h h h n S 6 r r 7 ' X = - # R m h f y h { l l h V ) # @ +   c # + O + O D 7 7 e t E u j d k  .- w > 2 n ",
"B g V ` k g p g M @ * * < ! 6 0 9 9 f R f f f C o.f g h h ' # # @ # f Y 7 t f h / 8 a h s / 3 4 6 3 0 N @ # # @ M q e 2 - I k s ",
"g g g { p p p 8 D w 1 w e ! a 9 6 $ 6 v X , , f O.h 6 7 r R h f 7 7 m N 6 4 ; 4 ) a p 0 9 E k k Z t f R t 0 q q U e q > * S 3 8 ",
"! f f q f ! q < < < w R w y f t ` f 0 l f ' # # # 3 7 E 9 t 7 9 ` j p g 8 I # > > 4 r ( s s 9 % K # < < 4 ' c w , < n U s y h t ",
"E 6 7 r f ] , 1 w w f S w w 4 < { g h p 7 Q : O @ @ # E l B h h E 6 8 0 j ! n r 6 ; 4 I & 5 3 5 U y f t t ) 2 e , = e Z r r r 6 ",
"k k J E 0 l V 8 _ 8 u i 5 L 9 9 0 g g ! $ : 6 7 E g a p a P 1 X = < 1 ) g t g k R X * - q W s k l N N ] k g 9 9 ) 9 7 7 q E j s ",
"k g 8 ` h h h g ` & u u i L V B h j l E f q g f ` g 0 0 i K c e w < < ) g t h s R > q > > D N s g 0 p { k p a 9 } g 3 % 4 K G d ",
"] j j j p ` J K K K E E t n n M ) s 0 s k ` t e 7 e Q M > , q 7 I 7 3 ; 3 { t s h B Z K a 6 4 8 ) h t t y ) r y y t K ^ x j j z ",
"` p g i 0 ^ f g B B Y U 6 4 4 : ] K T l s ( : < > 7 U U y 7 q < I ; 4 4 k | V V Z B P V k P N B ' h h f s ' P Z m y m T d j u 5 ",
"p p j 9 9 u & 8 / a g h N ( a 9 t 9 ] 7 7 # 4 # ] 7 7 y t ] s h P V X.r 3 r 9 y Z # # 5 3 ) m N B Z { n h h 6 h ) t f h f / j l ",
"8 & k k g B p g E 9 9 0 8 ` N h B l } y t t s s X.h r r r ) s y h k ] 5 3 3 3 s P 6 a 9 a ` B V B I | 9 4 r a N | > : > : E 8 8 ",
"R X X X o < B p 9 8 % F = X X * Q m h h f I Y k 8 5 9 Q 1 2 1 2 ~ w 7 e w K Y s H K K ) s s d p ( 7 7 6 6 U 7 w f c f ' 3 7 q 0 ",
"R , = X X - Z % 3 5 9 U 1 q c c [ K P h t K x i p a N ' , - - - ! q r y t I P 9 9 5 5 ] P B H P | t h n y ' < = < f < X.C h h f ",
"= = f E V h n Z ] P H G h { 4 7 f < n l 0 9 a h Q q 7 7 < W w t e t S K a a a a / d 0 a u E k d h 0 ^ > < e f e I # 3 3 8 R - : ",
"w 7 D I h h N P ] V V V P | q 7 < # v E h l B Z ) y w 7 < ) m f f t F K H K B H Y 5 5 p u L s l P H ( w < q > = Z 3 & 6 % Y < e ",
"T 9 3 8 a / n w y t P Y m V B N Q w < > < ) g 0 7 f Z A 2 , - 1 [ y 7 7 6 | q - * X e Y x x j G ^ p d j g ` = 4 w f Z Y h B l h ",
"^ 9 i p s ( w s y n I Y B V B B ! q C Z f ' 6 6 6 3 0 f , 2 - X | t t t y ) w v m m F K i i i 5 _ x j p 5 _ w < q < v Y 9 0 a 0 ",
"r k r ( $ $ 9 r T d p z d d Z q f t r X.f f f f P f f w e C Z * : > 4 ^ z G l l } B K J K E ` 0 j j l ^ p u 8 5 ] 7 7 : < m E h ",
"r s B ) k 9 3 3 I d i x k H W n C P f ! > < : : S r 7 7 q f R e w w > P i u u & _ h B h k P ) B k g g _ d j J J  .q w w f m Y 7 ",
"~ t n n c T p 8 5 3 s L i p u u $.Y l k 8 ` B V B Z E ~ y m h f ^ i i d p L a a g g M z & & d i _ j d d p X.4 < f m S E 7 q f f ",
"( e e 4 7 K 9 4 p s L ^ u p d d ^ p a j p { J V k N E D > 7 7 f ^ u 5 u 5 ^ l B l l K ^ j j d j ^ j p d i } # - = < C m q 7 7 q ",
", > * W * = > > D = = = q D M y w * = / 6 0 0 0 I 7 6 q e I e = q - 1 ) k s u s ] a a 8 u G j 8 & & & x 8 0 g p Y 9 i i p E f < ",
"v n e U > 7 > > S - > - = A n q < w f ) g 0 k h E w : > 7 M e > 1 - = T % 5 5 d ` $ 9 g h ^ j u d z j L & & & 5 E j g j J ` C 2 "
};
